<?xml version="1.0" encoding="utf-8" ?><svg xmlns="http://www.w3.org/2000/svg" xmlns:xlink="http://www.w3.org/1999/xlink" width="512" height="512" viewBox="0 0 512 512"><path fill="#84A9D9" d="M213.03 76.8739C232.422 63.9883 249.154 60.234 272.459 64.6296C281.189 65.626 293.645 73.7536 301.369 78.2055L352.54 107.818C353.433 108.328 358.05 110.846 358.36 111.355C362.228 113.432 366.181 115.673 369.941 117.943C380.696 123.297 403.743 136.788 408.996 145.478C411.869 147.041 416.636 156.74 418.071 159.816C423.633 171.741 422.766 184.29 422.755 197.149L422.77 239.59C422.777 242.351 422.928 246.901 422.751 249.567L422.553 292.874C422.552 298.851 423.151 307.412 422.751 313.193C422.858 319.706 423.735 336 422.751 342.04C422.894 370.121 404.834 385.979 383.012 398.725L357.294 413.884C356.276 414.49 353.266 416.355 352.298 416.785C343.251 422.512 332.262 428.339 322.926 433.839L305.352 444.204C302.684 445.765 299.478 447.84 296.779 449.162C294.292 451.159 286.885 454.34 283.8 455.578C273.23 460.303 245.934 461.648 235.412 457.323C233.041 456.832 226.082 454.903 223.428 454.137C220.823 452.26 217.904 451.026 215.155 449.388C183.915 430.766 152.829 412.244 121.309 394.044C94.7546 378.711 89.418 357.304 89.6225 329.46C89.1539 323.868 89.1954 318.791 89.1893 313.193C89.0182 312.078 89.2043 301.806 89.2006 299.908L89.1893 264.39C88.7827 262.65 89.2 256.1 89.2056 253.876L89.1449 195.422C89.289 174.35 89.5877 158.277 104.87 141.583C107.004 139.639 109.854 135.915 112.159 134.32C126.213 124.594 142.698 116.23 157.627 107.962L191.071 89.1434C193.231 87.9075 212.012 76.9169 213.03 76.8739Z"/><path fill="#F8A146" d="M241.5 346.718C241.311 353.257 241.133 360.094 241.5 366.635C241.094 370.307 240.318 372.169 238.203 375.238C234.293 378.75 219.166 387.76 214.179 387.383C215.73 385.96 217.466 384.287 218.002 382.241C219.452 379.265 218.512 365.959 218.772 361.518C219.798 360.711 220.93 358.455 222.097 357.744C225.975 355.38 238.716 347.354 241.5 346.718Z"/><path fill="#CDEFF8" d="M213.03 76.8739C232.422 63.9883 249.154 60.234 272.459 64.6296C281.189 65.626 293.645 73.7536 301.369 78.2055L352.54 107.818C353.433 108.328 358.05 110.846 358.36 111.355C362.228 113.432 366.181 115.673 369.941 117.943C380.696 123.297 403.743 136.788 408.996 145.478C409.013 145.701 416.986 158.773 418.43 163.282C387.41 144.958 370.45 172.029 356.89 171.903C358.469 169.507 369.007 161.365 371.869 159.182C348.039 166.431 354.718 179.714 350.48 147.641C348.736 154.87 348.711 161.562 347.394 168.253C346.441 168.216 339.294 164.107 337.941 163.282C336.447 162.456 334.864 161.861 333.281 161.219C332.465 161.348 331.163 161.284 331.344 162.355C336.135 166.199 340.726 169.639 345.626 173.316C344.786 173.734 341.218 175.716 340.796 175.855C338.194 178.442 331.612 182.602 328.436 184.882C331.113 184.237 332.919 183.068 335.212 184.882C323.892 190.244 307.161 203.636 295.576 210.872C292.548 213.447 286.224 216.291 284.646 219.447C278.95 217.655 272.542 218.221 266.642 218.15C251.637 217.969 252.92 216.232 252.995 232.592C250.232 232.464 243.421 236.081 241.5 237.99C244.351 244.066 245.745 252.256 244.25 258.806C244.164 259.797 243.65 262.605 243.379 263.65L243.379 263.65C245.407 264.443 243.595 266.699 243.475 268.511C242.97 276.148 241.179 284.064 236.136 289.897C225.995 301.63 204.798 306.279 192.022 296.51L191.769 296.507C189.31 295.97 184.741 295.773 182.509 297.182L182.231 297.361C177.698 297.493 180.273 299.139 176.112 299.39C174.958 300.92 174.868 302.53 174.045 303.368L173.712 302.578L173.34 302.697C172.563 306.039 169.118 307.892 171.992 309.694C169.343 311.51 163.853 315.305 160.93 316.566L160.449 316.243C156.978 316.215 146.965 322.708 144.022 325.036C128.454 337.349 123.526 351.255 121.35 369.873C119.341 369.312 112.502 364.044 110.596 362.572C84.8204 342.663 92.0154 317.078 89.1893 313.193C89.0182 312.078 89.2043 301.806 89.2006 299.908L89.1893 264.39C88.7827 262.65 89.2 256.1 89.2056 253.876L89.1449 195.422C89.289 174.35 89.5877 158.277 104.87 141.583C107.004 139.639 109.854 135.915 112.159 134.32C126.213 124.594 142.698 116.23 157.627 107.962L191.071 89.1434C193.231 87.9075 212.012 76.9169 213.03 76.8739Z"/><path fill="#F5F7F9" d="M213.03 76.8739C232.422 63.9883 249.154 60.234 272.459 64.6296C281.189 65.626 293.645 73.7536 301.369 78.2055L352.54 107.818C353.433 108.328 358.05 110.846 358.36 111.355C362.228 113.432 366.181 115.673 369.941 117.943C380.696 123.297 403.743 136.788 408.996 145.478C409.013 145.701 416.986 158.773 418.43 163.282C387.41 144.958 370.45 172.029 356.89 171.903C358.469 169.507 369.007 161.365 371.869 159.182C348.039 166.431 354.718 179.714 350.48 147.641C348.736 154.87 348.711 161.562 347.394 168.253C346.441 168.216 339.294 164.107 337.941 163.282C336.447 162.456 334.864 161.861 333.281 161.219C332.465 161.348 331.163 161.284 331.344 162.355C336.135 166.199 340.726 169.639 345.626 173.316C344.786 173.734 341.218 175.716 340.796 175.855C333.713 172.982 327.681 180.99 321.377 183.181C308.682 187.523 292.214 169.102 280.779 164.835C276.614 164.422 268.349 157.07 266.492 152.165C263.775 144.988 271.538 135.531 259.161 147.379C258.795 147.73 255.725 148.602 255.183 149.198C253.913 150.594 252.361 154.855 251.792 150.628C242.555 152.963 236.025 159.849 228.198 161.681C226.443 162.092 220.73 166.727 218.34 167.325C215.26 168.671 201.364 165.416 194.985 173.228C194.341 174.017 180.095 181.563 179.376 181.861C170.03 185.741 160.558 186.875 150.508 186.802C146.787 186.775 140.812 184.352 138.405 184.993C133.459 186.546 129.411 189.613 124.718 191.693C122.797 192.545 101.504 197.693 99.2395 198.152C93.956 199.222 92.3789 208.38 91.2294 212.584C88.3754 222.07 89.1731 253.296 89.1893 264.39C88.7827 262.65 89.2 256.1 89.2056 253.876L89.1449 195.422C89.289 174.35 89.5877 158.277 104.87 141.583C107.004 139.639 109.854 135.915 112.159 134.32C126.213 124.594 142.698 116.23 157.627 107.962L191.071 89.1434C193.231 87.9075 212.012 76.9169 213.03 76.8739Z"/><path fill="#46B3F1" d="M266.275 125.199C271.168 130.612 282.889 136.639 289.654 140.83L298.764 146.662C304.402 150.257 314.669 156.488 321.296 151.101C327.598 148.261 338.293 141.951 341.761 135.632C342.958 144.138 342.803 152.205 337.941 159.182C338.167 160.906 338.08 161.556 337.941 163.282C336.447 162.456 334.864 161.861 333.281 161.219C332.465 161.348 331.163 161.284 331.344 162.355C336.135 166.199 340.726 169.639 345.626 173.316C344.786 173.734 341.218 175.716 340.796 175.855C333.713 172.982 327.681 180.99 321.377 183.181C308.682 187.523 292.214 169.102 280.779 164.835C264.794 153.376 267.4 157.849 266.275 139.619L266.275 125.199Z"/><path fill="#C3D4EE" d="M266.275 139.619C272.64 146.926 279.634 150.137 287.889 155.251L299.76 162.519C312.037 170.125 318.24 173.132 331.344 162.355C336.135 166.199 340.726 169.639 345.626 173.316C344.786 173.734 341.218 175.716 340.796 175.855C333.713 172.982 327.681 180.99 321.377 183.181C308.682 187.523 292.214 169.102 280.779 164.835C264.794 153.376 267.4 157.849 266.275 139.619Z"/><path fill="#CDEFF8" d="M333.281 161.219C335.121 160.085 335.919 159.85 337.941 159.182C338.167 160.906 338.08 161.556 337.941 163.282C336.447 162.456 334.864 161.861 333.281 161.219Z"/><defs><linearGradient id="gradient_0" gradientUnits="userSpaceOnUse" x1="278.85355" y1="107.55409" x2="324.65765" y2="147.61333"><stop offset="0" stop-color="#00FF50"/><stop offset="1" stop-color="#0DFFFF"/></linearGradient></defs><path fill="url(#gradient_0)" d="M266.275 125.199C266.001 116.928 291.668 103.4 298.033 106.178C302.3 108.04 309.434 112.497 313.496 115.133C318.548 117.589 336.521 128.547 339.312 131.627C340.264 132.844 341.221 134.173 341.761 135.632C338.293 141.951 327.598 148.261 321.296 151.101C314.669 156.488 304.402 150.257 298.764 146.662L289.654 140.83C282.889 136.639 271.168 130.612 266.275 125.199Z"/><path fill="#4FEDE9" d="M339.312 131.627C340.264 132.844 341.221 134.173 341.761 135.632C338.293 141.951 327.598 148.261 321.296 151.101C319.861 139.95 331.633 136.13 339.312 131.627Z"/><path fill="#D6D8F6" d="M213.03 76.8739C232.422 63.9883 249.154 60.234 272.459 64.6296C271.204 65.2694 268.081 64.0998 266.645 63.9484C253.919 62.6055 241.933 63.2645 229.982 68.1704C226.48 69.6081 215.455 76.8947 213.03 76.8739Z"/><path fill="#EDF3F9" d="M358.36 111.355C362.228 113.432 366.181 115.673 369.941 117.943L369.452 118.138C367.392 117.954 358.884 113.224 358.36 111.355Z"/><defs><linearGradient id="gradient_1" gradientUnits="userSpaceOnUse" x1="152.39996" y1="163.97873" x2="149.28539" y2="135.38229"><stop offset="0" stop-color="#A436EA"/><stop offset="1" stop-color="#FF96FF"/></linearGradient></defs><path fill="url(#gradient_1)" d="M132.335 152.856C130.114 149.626 141.415 146.844 144.374 143.753C145.849 142.211 149.931 132.601 152.511 135.337C156.597 139.67 155.568 141.774 160.915 145.468C163.995 147.596 171.948 148.537 169.996 152.856C170.353 155.074 169.858 162.772 169.996 165.874C165.529 170.925 158.447 172.636 151.353 180.93C148.68 178.393 146.637 176.158 143.516 174.055C130.765 165.426 131.384 170.158 132.335 152.856L132.335 152.856Z"/><path fill="#D6D8F6" d="M154.149 165.874C160.554 156.315 160.983 159.012 169.701 153.06L169.996 152.856C170.353 155.074 169.858 162.772 169.996 165.874C165.529 170.925 158.447 172.636 151.353 180.93C148.68 178.393 146.637 176.158 143.516 174.055C130.765 165.426 131.384 170.158 132.335 152.856C137.116 157.341 141.531 157.783 146.816 163.282L146.816 163.282C147.12 163.149 154.245 164.33 154.375 164.593L154.149 165.874Z"/><path fill="#A128F3" d="M146.816 163.282C147.12 163.149 154.245 164.33 154.375 164.593L154.149 165.874C153.576 167.115 152.336 168.239 151.353 169.193C149.802 167.665 148.057 165.081 146.816 163.282Z"/><path fill="#A128F3" d="M132.335 152.856C133.889 153.014 134.094 154.519 135.304 154.555L135.414 153.837C136.747 153.536 145.604 158.337 146.347 160.133L146.005 160.164C145.377 159.582 144.403 158.454 143.722 158.337C143.635 160.338 147.203 162.094 146.816 163.282C141.531 157.783 137.116 157.341 132.335 152.856L132.335 152.856Z"/><path fill="#7261FB" d="M227.867 240.789C229.378 243.091 231.105 248.203 233.383 249.567C234.063 252.75 233.832 254.125 233.383 257.323L233.65 257.752C234.035 256.128 234.055 253.71 234.532 252.563C247.122 246.705 243.329 255.565 244.25 258.806C244.164 259.797 243.65 262.605 243.379 263.65L243.379 263.65C245.407 264.443 243.595 266.699 243.475 268.511C242.97 276.148 241.179 284.064 236.136 289.897C225.995 301.63 204.798 306.279 192.022 296.51L191.769 296.507C179.457 287.214 176.633 283.368 175.491 267.062C175.088 265.79 174.672 262.72 175.596 261.676L176.608 261.679C176.001 259.698 175.698 257.216 175.491 255.164L175.882 255.332C176.065 254.097 175.71 251.855 175.847 250.132C176.995 249.23 184.461 247.377 185.89 247.732C185.886 249.416 185.787 250.807 186.13 252.457L186.187 252.718C186.177 253.088 186.078 254.931 186.187 255.164C186.384 258.369 187.364 261.55 188.853 264.39C199.574 256.416 212.286 251.024 223.428 243.607C225.369 242.966 226.305 242.067 227.867 240.789Z"/><path fill="#46B3F1" d="M176.608 261.679C184.574 287.39 223.278 294.372 237.678 272.84C238.759 271.224 240.344 268.428 241.5 267.062C241.904 265.885 242.713 264.726 243.379 263.65L243.379 263.65C245.407 264.443 243.595 266.699 243.475 268.511C242.97 276.148 241.179 284.064 236.136 289.897C225.995 301.63 204.798 306.279 192.022 296.51L191.769 296.507C179.457 287.214 176.633 283.368 175.491 267.062C175.088 265.79 174.672 262.72 175.596 261.676L176.608 261.679Z"/><path fill="#7FF8F8" d="M176.608 261.679C184.574 287.39 223.278 294.372 237.678 272.84C238.759 271.224 240.344 268.428 241.5 267.062C242.367 266.315 242.377 266.132 242.851 265.042L243.174 264.922C243.618 265.941 242.205 269.753 241.744 270.983C230.555 300.8 183.934 297.129 175.491 267.062C175.088 265.79 174.672 262.72 175.596 261.676L176.608 261.679Z"/><path fill="#C3D4EE" d="M227.867 240.789C229.378 243.091 231.105 248.203 233.383 249.567C234.063 252.75 233.832 254.125 233.383 257.323C227.966 279.856 200.227 283.186 188.853 264.39C199.574 256.416 212.286 251.024 223.428 243.607C225.369 242.966 226.305 242.067 227.867 240.789Z"/><defs><linearGradient id="gradient_2" gradientUnits="userSpaceOnUse" x1="209.86882" y1="250.47153" x2="208.06302" y2="226.2081"><stop offset="0" stop-color="#C3CFF2"/><stop offset="1" stop-color="#E7E9F5"/></linearGradient></defs><path fill="url(#gradient_2)" d="M186.187 252.718C185.883 215.107 234.909 219.129 233.383 249.567C231.105 248.203 229.378 243.091 227.867 240.789C226.305 242.067 225.369 242.966 223.428 243.607C212.286 251.024 199.574 256.416 188.853 264.39C187.364 261.55 186.384 258.369 186.187 255.164C186.078 254.931 186.177 253.088 186.187 252.718Z"/><path fill="#EDF3F9" d="M186.187 255.164C186.28 254.649 186.102 252.618 186.238 252.382C193.559 239.657 211.045 238.367 223.428 243.607C212.286 251.024 199.574 256.416 188.853 264.39C187.364 261.55 186.384 258.369 186.187 255.164Z"/><defs><linearGradient id="gradient_3" gradientUnits="userSpaceOnUse" x1="210.57422" y1="217.21875" x2="209.81825" y2="251.71458"><stop offset="0" stop-color="#DA0FEE"/><stop offset="1" stop-color="#931BF6"/></linearGradient></defs><path fill="url(#gradient_3)" d="M175.491 255.164C173.462 213.293 224.676 202.764 241.5 237.99C244.351 244.066 245.745 252.256 244.25 258.806C243.329 255.565 247.122 246.705 234.532 252.563C234.055 253.71 234.035 256.128 233.65 257.752L233.383 257.323C233.832 254.125 234.063 252.75 233.383 249.567C234.909 219.129 185.883 215.107 186.187 252.718L186.13 252.457C185.787 250.807 185.886 249.416 185.89 247.732C184.461 247.377 176.995 249.23 175.847 250.132C175.71 251.855 176.065 254.097 175.882 255.332L175.491 255.164Z"/><path fill="#F5F7F9" d="M295.576 210.872C295.694 210.528 327.78 189.157 332.775 185.547L332.782 184.938C331.553 183.946 330.24 184.958 329.236 184.144L329.328 183.824C330.45 182.75 339.854 176.142 340.796 175.855C338.194 178.442 331.612 182.602 328.436 184.882C331.113 184.237 332.919 183.068 335.212 184.882C323.892 190.244 307.161 203.636 295.576 210.872Z"/><path fill="#D012ED" d="M142.565 226.627L130.958 226.619C114.351 226.585 119.501 218.604 124.788 218.295C131.135 217.924 167.822 217.462 172.024 218.605C175.061 219.432 175.915 224.696 173.108 226.209C171.435 227.111 156.016 226.63 152.946 226.627C152.783 229.723 152.878 231.508 152.946 234.525L152.946 250.815L152.533 251.58C148.958 252.322 147.757 251.747 143.861 253.211L143.095 253.499L142.565 251.601C142.879 247.269 142.575 238.217 142.565 233.597C142.63 231.229 142.727 228.997 142.565 226.627Z"/><path fill="#A128F3" d="M143.394 228.489L143.657 228.581C147.282 229.81 147.984 228.054 152.046 229.459C152.404 230.483 152.169 232.27 152.946 234.525L152.946 250.815L152.533 251.58C148.958 252.322 147.757 251.747 143.861 253.211L143.095 253.499L142.565 251.601C142.879 247.269 142.575 238.217 142.565 233.597C143.391 232.454 143.308 230.045 143.394 228.489Z"/><path fill="#84A9D9" d="M142.565 251.601L143.095 253.499L143.861 253.211C147.757 251.747 148.958 252.322 152.533 251.58L152.946 250.815L152.931 272.49C152.925 276.181 152.751 280.544 152.946 284.137C153.236 286.279 152.813 288.637 152.946 290.926C152.856 294.033 153.116 296.519 152.946 299.872C140.925 299.726 141.736 302.913 141.92 290.926C141.945 287.705 142.12 280.191 142.565 277.125L142.565 251.601Z"/><path fill="#5DBFD5" d="M141.92 290.926C145.485 290.89 149.455 290.679 152.946 290.926C152.856 294.033 153.116 296.519 152.946 299.872C140.925 299.726 141.736 302.913 141.92 290.926Z"/><path fill="#7FF8F8" d="M141.92 290.926C141.945 287.705 142.12 280.191 142.565 277.125C142.584 279.067 142.485 281.872 142.922 283.687C145.164 283.901 151.128 284.217 152.946 284.137C153.236 286.279 152.813 288.637 152.946 290.926C149.455 290.679 145.485 290.89 141.92 290.926Z"/><defs><linearGradient id="gradient_4" gradientUnits="userSpaceOnUse" x1="306.87906" y1="321.71011" x2="332.04138" y2="420.03665"><stop offset="0" stop-color="#40A7E0"/><stop offset="1" stop-color="#CCECFE"/></linearGradient></defs><path fill="url(#gradient_4)" d="M348.411 352.416C353.109 350.979 375.107 336.99 379.954 334.013C395.396 324.53 403.137 323.255 414.925 308.334L415.053 308.495C414.723 309.521 406.422 318.59 408.357 316.95C417.245 309.416 418.89 302.467 422.007 292.373C422.801 294.736 421.594 311.733 422.751 313.193C422.858 319.706 423.735 336 422.751 342.04C422.894 370.121 404.834 385.979 383.012 398.725L357.294 413.884C356.276 414.49 353.266 416.355 352.298 416.785C343.251 422.512 332.262 428.339 322.926 433.839L305.352 444.204C302.684 445.765 299.478 447.84 296.779 449.162C294.292 451.159 286.885 454.34 283.8 455.578C273.23 460.303 245.934 461.648 235.412 457.323L235.31 457.006C233.25 455.44 229.789 456.544 228.678 453.315C224.718 441.806 225.282 438.948 235.412 435.257L235.62 435.418C236.464 435.47 237.527 435.658 238.203 435.257C234.025 434.791 231.811 433.469 227.867 432.576C219.605 428.59 211.042 423.533 203.413 418.402C204.445 417.681 208.313 418.456 209.562 418.774C217.172 420.71 223.261 418.8 230.79 418.402C232.648 416.895 237.015 416.21 239.289 415.022C249.321 409.779 266.789 401.327 275.589 394.663C275.911 392.627 298.377 382.705 298.61 380.282C297.097 379.332 296.685 381.236 296.649 378.209C296.119 378.536 296.368 378.529 295.896 378.43C296.23 375.402 302.46 371.51 305.072 370.052L305.428 370.53L305.48 370.401C306.987 371.203 307.72 370.529 309.361 370.254L309.652 370.473L309.626 371.17C310.593 370.613 311.615 369.567 311.46 371.089L312.11 371.23C312.61 370.625 312.615 370.548 313.265 370.139L313.51 370.386C313.493 371.109 313.462 371.807 313.426 372.529L313.713 372.433C314.087 371.953 346.934 352.613 348.411 352.416Z"/><defs><linearGradient id="gradient_5" gradientUnits="userSpaceOnUse" x1="375.83762" y1="408.08591" x2="356.39206" y2="385.22049"><stop offset="0" stop-color="#2A40E3"/><stop offset="1" stop-color="#4890F8"/></linearGradient></defs><path fill="url(#gradient_5)" d="M422.751 328.428C422.917 332.582 422.71 337.757 422.751 342.04C422.894 370.121 404.834 385.979 383.012 398.725L357.294 413.884C356.276 414.49 353.266 416.355 352.298 416.785C343.251 422.512 332.262 428.339 322.926 433.839L305.352 444.204C302.684 445.765 299.478 447.84 296.779 449.162C294.292 451.159 286.885 454.34 283.8 455.578L283.639 455.263C286.873 452.238 292.131 440.449 288.997 435.257C287.986 434.86 284.305 433.347 283.8 432.576C301.413 426.097 318.175 412.286 335.212 404.075C335.199 404.095 365.447 386.169 367.625 384.908C387.908 371.994 407.754 366.017 418.292 342.484C420.276 338.052 421.354 333.048 422.751 328.428Z"/><path fill="#46B3F1" d="M358.36 391.286C358.367 392.954 358.584 393.353 358.935 394.908C360.341 401.132 330.782 421.836 323.268 427.128C319.168 430.016 314.306 432.332 310.412 435.323C305.366 439.199 302.077 445.086 296.706 448.624L296.779 449.162C294.292 451.159 286.885 454.34 283.8 455.578L283.639 455.263C286.873 452.238 292.131 440.449 288.997 435.257C287.986 434.86 284.305 433.347 283.8 432.576C301.413 426.097 318.175 412.286 335.212 404.075C337.019 404.075 354.637 392.799 358.36 391.286Z"/><path fill="#7FF8F8" d="M238.203 435.257C256.738 437.635 264.756 438.627 283.8 432.576C284.305 433.347 287.986 434.86 288.997 435.257C292.131 440.449 286.873 452.238 283.639 455.263L283.8 455.578C273.23 460.303 245.934 461.648 235.412 457.323L235.31 457.006C233.25 455.44 229.789 456.544 228.678 453.315C224.718 441.806 225.282 438.948 235.412 435.257L235.62 435.418C236.464 435.47 237.527 435.658 238.203 435.257Z"/><path fill="#7FF8F8" d="M288.997 387.383C290.455 387.048 291.536 386.19 292.778 385.378L292.932 385.511C291.479 388.003 289.231 388.447 288.952 389.517L289.395 390.274C287.985 391.452 287.639 391.069 288.085 393L287.13 394.319C290.208 396.089 285.408 396.436 288.294 397.318C290.605 406.392 288.967 406.888 282.961 413.521C273.868 423.564 226.07 425.754 218.772 419.643C216.39 420.522 212.672 419.62 209.701 420.499L209.607 420.824C213.388 425.338 226.111 430.12 227.867 432.576C219.605 428.59 211.042 423.533 203.413 418.402C204.445 417.681 208.313 418.456 209.562 418.774C217.172 420.71 223.261 418.8 230.79 418.402C232.648 416.895 237.015 416.21 239.289 415.022C249.321 409.779 266.789 401.327 275.589 394.663C278.523 393.011 286.416 388.167 288.997 387.383Z"/><path fill="#5DBFD5" d="M305.072 370.052L305.428 370.53L305.48 370.401C306.987 371.203 307.72 370.529 309.361 370.254L309.652 370.473L309.626 371.17C310.593 370.613 311.615 369.567 311.46 371.089L312.11 371.23C312.61 370.625 312.615 370.548 313.265 370.139L313.51 370.386C313.493 371.109 313.462 371.807 313.426 372.529L313.713 372.433C314.087 371.953 346.934 352.613 348.411 352.416C334.605 360.959 320.158 368.75 306.211 377.053C302.02 379.549 292.456 384.588 288.997 387.383C286.416 388.167 278.523 393.011 275.589 394.663C275.911 392.627 298.377 382.705 298.61 380.282C297.097 379.332 296.685 381.236 296.649 378.209C296.119 378.536 296.368 378.529 295.896 378.43C296.23 375.402 302.46 371.51 305.072 370.052Z"/><path fill="#4FEDE9" d="M89.1893 313.193C92.0154 317.078 84.8204 342.663 110.596 362.572C112.502 364.044 119.341 369.312 121.35 369.873C123.526 351.255 128.454 337.349 144.022 325.036C146.965 322.708 156.978 316.215 160.449 316.243L160.93 316.566C158.481 318.768 157.427 320.254 155.868 323.171C150.521 327.876 151.645 343.761 154.897 348.929C159.939 357.135 164.231 358.96 172.295 363.853L187.914 373.239C194.473 377.137 207.292 386.031 214.179 387.383C219.166 387.76 234.293 378.75 238.203 375.238C240.318 372.169 241.094 370.307 241.5 366.635C242.079 364.246 241.735 356.673 241.822 353.715C243.11 356.113 240.249 363.933 243.719 366.478C246.909 365.902 243.876 368.729 247.858 367.136L248.304 367.374C249.946 368.23 250.979 365.123 252.516 368.743C252.723 368.119 252.714 367.95 253.129 367.458L253.846 367.863C255.036 366.885 254.75 366.926 256.087 367.737L256.458 367.002C257.398 367.183 256.903 367.429 257.874 367.617L258.825 366.965L259.684 367.745L259.801 368.167C261.462 368.133 265.96 367.731 267.127 368.426C267.918 367.691 275.427 366.325 276.69 366.346C292.647 366.615 304.473 355.559 309.36 355.505L310.058 356.215C310.683 356.042 311.366 356.168 312.054 356.215C311.665 357.203 310.719 357.352 310.397 358.407C312.884 358.729 318.792 355.715 322.346 355.24C321.222 356.058 320.324 356.688 319.14 357.43C319.606 358.419 319.626 358.099 319.495 359.035C317.39 360.822 307.603 368.055 305.072 368.7C304.899 369.669 304.761 369.382 305.072 370.052C302.46 371.51 296.23 375.402 295.896 378.43C296.368 378.529 296.119 378.536 296.649 378.209C296.685 381.236 297.097 379.332 298.61 380.282C298.377 382.705 275.911 392.627 275.589 394.663C266.789 401.327 249.321 409.779 239.289 415.022C237.015 416.21 232.648 416.895 230.79 418.402C223.261 418.8 217.172 420.71 209.562 418.774C208.313 418.456 204.445 417.681 203.413 418.402C211.042 423.533 219.605 428.59 227.867 432.576C231.811 433.469 234.025 434.791 238.203 435.257C237.527 435.658 236.464 435.47 235.62 435.418L235.412 435.257C225.282 438.948 224.718 441.806 228.678 453.315C229.789 456.544 233.25 455.44 235.31 457.006L235.412 457.323C233.041 456.832 226.082 454.903 223.428 454.137C220.823 452.26 217.904 451.026 215.155 449.388C183.915 430.766 152.829 412.244 121.309 394.044C94.7546 378.711 89.418 357.304 89.6225 329.46C89.1539 323.868 89.1954 318.791 89.1893 313.193Z"/><defs><linearGradient id="gradient_6" gradientUnits="userSpaceOnUse" x1="148.73912" y1="413.23203" x2="168.79292" y2="384.02899"><stop offset="0" stop-color="#2E97F3"/><stop offset="1" stop-color="#0AFFFC"/></linearGradient></defs><path fill="url(#gradient_6)" d="M89.6225 329.46C90.3113 330.13 90.4374 331.091 90.6386 332.049C96.1722 358.401 114.413 365.554 133.936 377.637C138.103 380.166 147.163 385.934 151.353 387.383C162.494 395.563 182.43 406.643 194.615 413.125C196.654 414.209 201.603 417.696 203.413 418.402C211.042 423.533 219.605 428.59 227.867 432.576C231.811 433.469 234.025 434.791 238.203 435.257C237.527 435.658 236.464 435.47 235.62 435.418L235.412 435.257C225.282 438.948 224.718 441.806 228.678 453.315C229.789 456.544 233.25 455.44 235.31 457.006L235.412 457.323C233.041 456.832 226.082 454.903 223.428 454.137C220.823 452.26 217.904 451.026 215.155 449.388C183.915 430.766 152.829 412.244 121.309 394.044C94.7546 378.711 89.418 357.304 89.6225 329.46Z"/><path fill="#5DBFD5" d="M238.203 375.238C243.042 387.55 239.553 389.718 228.335 395.941C212.493 404.728 211.343 400.089 197.087 391.759L176.572 379.624C171.027 376.338 161.992 371.435 157.422 367.198C153.873 363.906 151.852 351.493 154.897 348.929C159.939 357.135 164.231 358.96 172.295 363.853L187.914 373.239C194.473 377.137 207.292 386.031 214.179 387.383C219.166 387.76 234.293 378.75 238.203 375.238Z"/><path fill="#52E5CE" d="M319.14 357.43C319.606 358.419 319.626 358.099 319.495 359.035C317.39 360.822 307.603 368.055 305.072 368.7C303.263 369.267 285.621 377.69 283.745 378.74C280.244 380.057 262.59 390.406 259.737 390.613C260.105 388.395 271.114 384.604 273.262 383.5C280.49 379.783 284.085 377.571 290.323 372.914C294.822 369.555 313.184 361.231 314.335 359.832C315.945 359.123 317.571 358.244 319.14 357.43Z"/><path fill="#7FF8F8" d="M312.054 356.215C311.665 357.203 310.719 357.352 310.397 358.407C312.884 358.729 318.792 355.715 322.346 355.24C321.222 356.058 320.324 356.688 319.14 357.43C317.571 358.244 315.945 359.123 314.335 359.832C310.955 360.739 308.315 362.273 305.267 363.15L305.128 362.945C305.718 362.331 306.21 361.888 306.638 361.148L305.873 360.356L301.564 362.61C304.129 360.509 308.927 358.201 310.058 356.215C310.683 356.042 311.366 356.168 312.054 356.215Z"/><path fill="#C3D4EE" d="M408.996 145.478C411.869 147.041 416.636 156.74 418.071 159.816C423.633 171.741 422.766 184.29 422.755 197.149L422.77 239.59C422.777 242.351 422.928 246.901 422.751 249.567C422.036 247.691 422.112 242.534 422.111 240.397L422.139 223.126C422.189 213.9 423.714 204.517 409.305 205.568C404.187 205.942 405.413 207.102 398.771 206.841C396.247 206.632 394.197 208.954 391.73 209.312C390.445 209.457 389.381 209.488 388.216 210.205L387.719 209.881C386.639 210.974 386.091 211.584 384.791 212.451C384.332 211.963 375.236 214.495 374.853 215.004C374.079 216.031 372.987 215.567 371.708 215.661C369.82 218.111 363.115 215.915 368.204 217.901L368.276 218.145C366.513 219.32 365.387 218.132 363.689 218.506L363.14 217.791C363.125 217.771 363.111 217.752 363.097 217.732L362.325 217.973L362.155 218.391L362.36 218.675C371.848 219.711 387.959 234.046 386.376 243.07C375.62 206.319 322.099 209.906 316.67 245.935C316.093 250.014 316.078 251.944 316.67 256.053C316.532 256.342 316.631 256.181 316.321 256.501C313.957 247.744 317.847 237.834 322.288 230.448L321.616 230.546L321.552 230.142C321.983 229.67 322.207 229.517 322.399 228.913L322.078 228.719L321.38 229.199C315.641 227.333 308.984 229.171 304.078 232.501C304.488 233.919 306.164 235.521 306.601 236.562C309.321 243.039 310.015 259.221 309.266 252.718C309.372 249.809 309.419 246.373 308.377 243.607C306.193 231.56 295.882 222.914 284.646 219.447C286.224 216.291 292.548 213.447 295.576 210.872C307.161 203.636 323.892 190.244 335.212 184.882C332.919 183.068 331.113 184.237 328.436 184.882C331.612 182.602 338.194 178.442 340.796 175.855C341.218 175.716 344.786 173.734 345.626 173.316C340.726 169.639 336.135 166.199 331.344 162.355C331.163 161.284 332.465 161.348 333.281 161.219C334.864 161.861 336.447 162.456 337.941 163.282C339.294 164.107 346.441 168.216 347.394 168.253C348.711 161.562 348.736 154.87 350.48 147.641C354.718 179.714 348.039 166.431 371.869 159.182C369.007 161.365 358.469 169.507 356.89 171.903C370.45 172.029 387.41 144.958 418.43 163.282C416.986 158.773 409.013 145.701 408.996 145.478Z"/><path fill="#EDF3F9" d="M350.48 147.641C354.718 179.714 348.039 166.431 371.869 159.182C369.007 161.365 358.469 169.507 356.89 171.903C356.221 172.363 355.504 172.838 354.855 173.316C358.207 175.413 368.482 183.85 371.869 186.873C368.809 185.78 366.245 184.287 363.361 182.812L352.298 177.134L349.431 198.686C349.064 193.881 347.993 181.367 348.411 177.134C344.797 178.688 338.249 182.418 335.212 184.882C332.919 183.068 331.113 184.237 328.436 184.882C331.612 182.602 338.194 178.442 340.796 175.855C341.218 175.716 344.786 173.734 345.626 173.316C340.726 169.639 336.135 166.199 331.344 162.355C331.163 161.284 332.465 161.348 333.281 161.219C334.864 161.861 336.447 162.456 337.941 163.282C339.294 164.107 346.441 168.216 347.394 168.253C348.711 161.562 348.736 154.87 350.48 147.641Z"/><defs><linearGradient id="gradient_7" gradientUnits="userSpaceOnUse" x1="352.51599" y1="217.64705" x2="350.73022" y2="286.74948"><stop offset="0" stop-color="#D500ED"/><stop offset="1" stop-color="#757FFD"/></linearGradient></defs><path fill="url(#gradient_7)" d="M316.67 245.935C322.099 209.906 375.62 206.319 386.376 243.07C386.761 245.601 387.222 248.262 387.255 250.815C387.309 256.01 386.994 259.316 385.424 264.39C372.681 297.402 325.073 290.655 319.14 265.133C316.975 261.87 316.888 259.894 316.67 256.053C316.078 251.944 316.093 250.014 316.67 245.935Z"/><path fill="#ACB9E2" d="M327.377 247.831C332.09 215.616 373.657 217.981 376.525 249.567L376.525 251.601C376.37 254.179 376.068 257.177 375.21 259.626C371.354 280.663 335.636 286.902 327.377 256.053C327.156 253.304 327.312 250.591 327.377 247.831L327.377 247.831Z"/><path fill="#8998DA" d="M327.377 247.831C332.09 215.616 373.657 217.981 376.525 249.567L376.525 251.601C376.37 254.179 376.068 257.177 375.21 259.626C377.041 240.229 337.87 231.157 330.371 250.437C329.754 252.024 328.585 254.996 327.377 256.053C327.156 253.304 327.312 250.591 327.377 247.831L327.377 247.831Z"/><path fill="#D6D8F6" d="M327.377 247.831C332.09 215.616 373.657 217.981 376.525 249.567L376.525 251.601L376.088 252.957L375.903 252.871C373.494 236.638 357.528 228.872 342.689 233.349C333.884 236.005 331.715 240.855 327.645 248.082L327.377 247.831Z"/><defs><linearGradient id="gradient_8" gradientUnits="userSpaceOnUse" x1="280.0835" y1="217.23036" x2="281.54364" y2="284.90198"><stop offset="0" stop-color="#D000F0"/><stop offset="1" stop-color="#6F69FD"/></linearGradient></defs><path fill="url(#gradient_8)" d="M252.995 232.592C252.92 216.232 251.637 217.969 266.642 218.15C272.542 218.221 278.95 217.655 284.646 219.447C295.882 222.914 306.193 231.56 308.377 243.607C309.419 246.373 309.372 249.809 309.266 252.718C308.946 257.914 308.887 259.15 307.48 264.39L307.694 265.178L308.312 265.309L308.463 264.742C308.634 266.271 308.509 267.193 308.377 268.704C296.025 292.249 278.127 294.084 253.963 288.831C253.318 288.462 253.111 285.041 252.995 284.137C250.846 277.317 253.879 262.024 252.361 254.729L252.406 254.95L251.928 254.618C242.718 259.161 247.783 249.485 243.379 263.65L243.379 263.65C243.65 262.605 244.164 259.797 244.25 258.806C245.745 252.256 244.351 244.066 241.5 237.99C243.421 236.081 250.232 232.464 252.995 232.592Z"/><defs><linearGradient id="gradient_9" gradientUnits="userSpaceOnUse" x1="280.57977" y1="290.65042" x2="280.85648" y2="265.21017"><stop offset="0" stop-color="#6DF9F4"/><stop offset="1" stop-color="#5FDBFF"/></linearGradient></defs><path fill="url(#gradient_9)" d="M307.48 264.39L307.694 265.178L308.312 265.309L308.463 264.742C308.634 266.271 308.509 267.193 308.377 268.704C296.025 292.249 278.127 294.084 253.963 288.831C253.318 288.462 253.111 285.041 252.995 284.137L252.995 282.353C273.29 290.028 297.214 284.86 307.48 264.39Z"/><path fill="#C3D4EE" d="M252.995 232.592L252.995 243.607L252.982 269.265C252.981 273.321 252.838 278.369 252.995 282.353L252.995 284.137C250.846 277.317 253.879 262.024 252.361 254.729L252.406 254.95L251.928 254.618C242.718 259.161 247.783 249.485 243.379 263.65L243.379 263.65C243.65 262.605 244.164 259.797 244.25 258.806C245.745 252.256 244.351 244.066 241.5 237.99C243.421 236.081 250.232 232.464 252.995 232.592Z"/><path fill="#ACB9E2" d="M263.72 225.789C277.928 225.207 291.274 225.272 296.847 241.657C297.168 242.602 297.646 245.263 297.967 245.935L297.967 247.831C298.715 249.176 297.83 256.413 297.537 258.115C294.598 275.187 278.26 277.646 263.72 274.979L263.72 243.607L263.72 232.592L263.72 225.789Z"/><path fill="#D6D8F6" d="M263.72 225.789C277.928 225.207 291.274 225.272 296.847 241.657C297.168 242.602 297.646 245.263 297.967 245.935L297.967 247.831C297.961 248.715 297.931 249.455 297.875 250.336C293.738 240.136 286.364 232.766 274.497 232.633C270.559 232.589 267.818 233.023 263.72 232.592L263.72 225.789Z"/><path fill="#F17FE8" d="M171.992 309.694C178.558 304.981 180.917 305.681 188.853 305.789L191.769 307.644C193.924 308.544 210.785 318.079 212.187 319.307L212.181 319.619C214.349 320.828 216.54 322.092 218.772 323.171C214.706 326.884 210.858 330.046 206.918 333.995C194.107 346.837 200.902 338.647 194.6 339.021L194.488 339.135C198.467 341.689 203.476 343.96 207.183 346.718C208.461 347.405 209.154 348.023 210.262 348.929C211.207 349.439 211.389 349.572 212.187 350.293L212.187 350.293C215.214 353.521 218.209 356.927 218.772 361.518C218.512 365.959 219.452 379.265 218.002 382.241C217.466 384.287 215.73 385.96 214.179 387.383C207.292 386.031 194.473 377.137 187.914 373.239L172.295 363.853C164.231 358.96 159.939 357.135 154.897 348.929C151.645 343.761 150.521 327.876 155.868 323.171C157.427 320.254 158.481 318.768 160.93 316.566C163.853 315.305 169.343 311.51 171.992 309.694Z"/><path fill="#ECAFC3" d="M181.116 331.628C179.063 329.024 166.707 322.477 162.264 320.823L162.297 320.514C169.183 316.685 183.953 304.155 191.103 307.691L191.447 307.863L191.769 307.644C193.924 308.544 210.785 318.079 212.187 319.307L212.181 319.619C214.349 320.828 216.54 322.092 218.772 323.171C214.706 326.884 210.858 330.046 206.918 333.995C194.107 346.837 200.902 338.647 194.6 339.021L194.488 339.135C189.832 336.998 185.61 333.911 181.116 331.628Z"/><defs><linearGradient id="gradient_10" gradientUnits="userSpaceOnUse" x1="219.04813" y1="358.86392" x2="207.01178" y2="369.22574"><stop offset="0" stop-color="#FF4749"/><stop offset="1" stop-color="#FB599B"/></linearGradient></defs><path fill="url(#gradient_10)" d="M210.262 348.929C211.207 349.439 211.389 349.572 212.187 350.293L212.187 350.293C215.214 353.521 218.209 356.927 218.772 361.518C218.512 365.959 219.452 379.265 218.002 382.241C217.611 381.532 217.928 380.873 218.106 379.905L217.241 380.169C215.951 379.687 208.574 376.323 212.591 375.231L212.632 374.944C208.399 369.838 202.671 364.157 198.103 359.088C196.007 359.815 192.955 361.277 190.85 362.221L190.581 362.088L190.514 362.157C192.75 360.546 194.912 360.374 197.064 359.088L196.946 358.797C197.872 357.829 199.137 357.769 200.358 356.605L200.37 356.086L199.932 355.711C199.07 355.861 198.104 356.948 197.405 357.594L197.064 357.43C198.812 356.17 201.214 354.011 203.413 352.416C205.229 352.567 208.472 350.038 210.262 348.929L210.262 348.929Z"/><path fill="#F7C3F4" d="M210.262 348.929C211.207 349.439 211.389 349.572 212.187 350.293C210.461 351.844 199.671 357.802 197.064 359.088L196.946 358.797C197.872 357.829 199.137 357.769 200.358 356.605L200.37 356.086L199.932 355.711C199.07 355.861 198.104 356.948 197.405 357.594L197.064 357.43C198.812 356.17 201.214 354.011 203.413 352.416C205.229 352.567 208.472 350.038 210.262 348.929L210.262 348.929Z"/><defs><linearGradient id="gradient_11" gradientUnits="userSpaceOnUse" x1="205.13603" y1="339.07758" x2="185.44612" y2="347.3721"><stop offset="0" stop-color="#FF5E65"/><stop offset="1" stop-color="#F66CCE"/></linearGradient></defs><path fill="url(#gradient_11)" d="M181.116 331.628C185.61 333.911 189.832 336.998 194.488 339.135C198.467 341.689 203.476 343.96 207.183 346.718C208.461 347.405 209.154 348.023 210.262 348.929L210.262 348.929C208.472 350.038 205.229 352.567 203.413 352.416C201.214 354.011 198.812 356.17 197.064 357.43C195.488 357.899 190.603 360.648 192.947 358.144C189.738 354.907 182.643 344.341 183.351 339.745C184.721 330.841 182.321 334.51 181.116 331.628Z"/><path fill="#ECAFC3" d="M203.413 352.416C205.692 349.914 206.773 348.801 210.262 348.929C208.472 350.038 205.229 352.567 203.413 352.416Z"/><path fill="#F7C3F4" d="M171.992 309.694C178.558 304.981 180.917 305.681 188.853 305.789C182.667 306.456 164.341 318.657 155.868 323.171C157.427 320.254 158.481 318.768 160.93 316.566C163.853 315.305 169.343 311.51 171.992 309.694Z"/><path fill="#8998DA" d="M385.424 264.39L386.188 264.79C386.691 266.504 385.652 269.089 385.424 270.834C388.716 308.45 316.981 315.94 317.76 268.704C317.312 266.463 317.252 266.252 319.14 265.133C325.073 290.655 372.681 297.402 385.424 264.39Z"/><defs><linearGradient id="gradient_12" gradientUnits="userSpaceOnUse" x1="351.44897" y1="292.27014" x2="351.76218" y2="265.84711"><stop offset="0" stop-color="#73EAF0"/><stop offset="1" stop-color="#56CAFF"/></linearGradient></defs><path fill="url(#gradient_12)" d="M385.424 264.39L386.188 264.79C386.691 266.504 385.652 269.089 385.424 270.834C373.257 301.811 325.511 298.877 317.76 268.704C317.312 266.463 317.252 266.252 319.14 265.133C325.073 290.655 372.681 297.402 385.424 264.39Z"/><path fill="#EAE5A7" d="M212.187 319.307C216.366 321.202 229.857 328.933 233.383 331.628C235.488 333.833 237.652 336.27 238.836 339.135C239.954 341.545 240.879 344.134 241.5 346.718C238.716 347.354 225.975 355.38 222.097 357.744C220.93 358.455 219.798 360.711 218.772 361.518C218.209 356.927 215.214 353.521 212.187 350.293L212.187 350.293C211.389 349.572 211.207 349.439 210.262 348.929C209.154 348.023 208.461 347.405 207.183 346.718C203.476 343.96 198.467 341.689 194.488 339.135L194.6 339.021C200.902 338.647 194.107 346.837 206.918 333.995C210.858 330.046 214.706 326.884 218.772 323.171C216.54 322.092 214.349 320.828 212.181 319.619L212.187 319.307Z"/><path fill="#F5F337" d="M236.229 339.135C236.986 338.958 238.019 339.092 238.836 339.135C239.954 341.545 240.879 344.134 241.5 346.718C238.716 347.354 225.975 355.38 222.097 357.744C220.93 358.455 219.798 360.711 218.772 361.518C218.209 356.927 215.214 353.521 212.187 350.293C221.009 348.411 226.384 341.198 236.229 339.135Z"/><path fill="#F5F7F9" d="M233.383 331.628C235.488 333.833 237.652 336.27 238.836 339.135C238.019 339.092 236.986 338.958 236.229 339.135C226.384 341.198 221.009 348.411 212.187 350.293L212.187 350.293C211.389 349.572 211.207 349.439 210.262 348.929C209.154 348.023 208.461 347.405 207.183 346.718C212.843 339.732 226.432 336.448 233.383 331.628Z"/><path fill="#F17FE8" d="M328.436 343.857C342.869 336.019 354.16 329.306 369.293 322.112C376.704 318.588 378.803 316.017 387.177 315.545L387.328 315.76L349.431 341.107C343.269 344.835 337.364 348.797 331.15 352.366C328.848 353.688 327.046 353.079 325.259 354.421L324.902 354.307C325.727 353.812 328.331 352.491 328.436 351.648L322.346 355.24C318.792 355.715 312.884 358.729 310.397 358.407C310.719 357.352 311.665 357.203 312.054 356.215C313.019 352.156 324.437 346.193 328.436 343.857Z"/><defs><linearGradient id="gradient_13" gradientUnits="userSpaceOnUse" x1="334.42267" y1="347.96417" x2="330.87445" y2="343.00211"><stop offset="0" stop-color="#FFFBFA"/><stop offset="1" stop-color="#DDF4FE"/></linearGradient></defs><path fill="url(#gradient_13)" d="M312.054 356.215C313.625 355.122 316.563 354.189 318.651 352.911C326.581 348.059 346.728 335.82 355.154 332.897C353.634 335.408 332.5 348.705 328.436 351.648L322.346 355.24C318.792 355.715 312.884 358.729 310.397 358.407C310.719 357.352 311.665 357.203 312.054 356.215Z"/><path fill="#8998DA" d="M253.963 288.831C278.127 294.084 296.025 292.249 308.377 268.704C305.684 281.073 304.154 287.754 292.584 295.461C280.256 303.673 266.476 301.908 252.995 297.863C253.171 296.478 253.556 289.291 253.963 288.831Z"/><path fill="#8998DA" d="M328.436 343.857C335.696 335.685 341.348 334.357 351.374 330.073C356.917 327.705 362.609 324.368 368.28 321.992C369.706 321.395 389.702 310.253 388.402 316.014C387.122 317.3 350.559 340.958 349.807 341.27L349.431 341.107L387.328 315.76L387.177 315.545C378.803 316.017 376.704 318.588 369.293 322.112C354.16 329.306 342.869 336.019 328.436 343.857Z"/></svg>